<svg width="161" height="54" viewBox="0 0 161 54" fill="none" xmlns="http://www.w3.org/2000/svg">
  <rect width="161" height="54" rx="10" fill="black" />
  <path
    d="M22.9311 36.52C22.0671 36.52 21.2841 36.385 20.5821 36.115C19.8981 35.827 19.3041 35.413 18.8001 34.873C18.3141 34.315 17.9361 33.649 17.6661 32.875C17.3961 32.083 17.2431 31.183 17.2071 30.175C17.1891 29.815 17.1801 29.5 17.1801 29.23C17.1801 28.942 17.1891 28.627 17.2071 28.285C17.2431 27.313 17.3961 26.44 17.6661 25.666C17.9361 24.892 18.3141 24.226 18.8001 23.668C19.2861 23.11 19.8801 22.687 20.5821 22.399C21.2841 22.093 22.0671 21.94 22.9311 21.94C23.8311 21.94 24.6051 22.093 25.2531 22.399C25.9011 22.687 26.4501 23.065 26.9001 23.533V17.755C26.9001 17.557 26.9631 17.395 27.0891 17.269C27.2151 17.143 27.3771 17.08 27.5751 17.08H30.8691C31.0491 17.08 31.2021 17.143 31.3281 17.269C31.4721 17.395 31.5441 17.557 31.5441 17.755V35.575C31.5441 35.773 31.4721 35.935 31.3281 36.061C31.2021 36.187 31.0491 36.25 30.8691 36.25H27.8181C27.6201 36.25 27.4581 36.187 27.3321 36.061C27.2061 35.935 27.1431 35.773 27.1431 35.575V34.711C26.7111 35.233 26.1531 35.665 25.4691 36.007C24.7851 36.349 23.9391 36.52 22.9311 36.52ZM24.3891 32.902C25.0011 32.902 25.4781 32.776 25.8201 32.524C26.1801 32.254 26.4411 31.912 26.6031 31.498C26.7831 31.084 26.8821 30.634 26.9001 30.148C26.9181 29.788 26.9271 29.446 26.9271 29.122C26.9271 28.798 26.9181 28.465 26.9001 28.123C26.8821 27.673 26.7831 27.259 26.6031 26.881C26.4231 26.485 26.1531 26.17 25.7931 25.936C25.4331 25.684 24.9651 25.558 24.3891 25.558C23.7951 25.558 23.3181 25.684 22.9581 25.936C22.6161 26.188 22.3731 26.53 22.2291 26.962C22.0851 27.394 21.9951 27.871 21.9591 28.393C21.9051 28.951 21.9051 29.509 21.9591 30.067C21.9951 30.589 22.0851 31.066 22.2291 31.498C22.3731 31.93 22.6161 32.272 22.9581 32.524C23.3181 32.776 23.7951 32.902 24.3891 32.902ZM42.5563 36.52C40.4323 36.52 38.7403 35.944 37.4803 34.792C36.2203 33.64 35.5633 31.93 35.5093 29.662C35.5093 29.536 35.5093 29.374 35.5093 29.176C35.5093 28.978 35.5093 28.825 35.5093 28.717C35.5633 27.295 35.8783 26.08 36.4543 25.072C37.0483 24.046 37.8583 23.272 38.8843 22.75C39.9283 22.21 41.1433 21.94 42.5293 21.94C44.1133 21.94 45.4183 22.255 46.4443 22.885C47.4883 23.515 48.2713 24.37 48.7933 25.45C49.3153 26.53 49.5763 27.763 49.5763 29.149V29.797C49.5763 29.995 49.5043 30.157 49.3603 30.283C49.2343 30.409 49.0813 30.472 48.9013 30.472H40.2613C40.2613 30.49 40.2613 30.517 40.2613 30.553C40.2613 30.589 40.2613 30.625 40.2613 30.661C40.2793 31.183 40.3693 31.66 40.5313 32.092C40.6933 32.524 40.9453 32.866 41.2873 33.118C41.6293 33.37 42.0433 33.496 42.5293 33.496C42.8893 33.496 43.1863 33.442 43.4203 33.334C43.6723 33.208 43.8793 33.073 44.0413 32.929C44.2033 32.767 44.3293 32.632 44.4193 32.524C44.5813 32.344 44.7073 32.236 44.7973 32.2C44.9053 32.146 45.0673 32.119 45.2833 32.119H48.6313C48.8113 32.119 48.9553 32.173 49.0633 32.281C49.1893 32.371 49.2433 32.506 49.2253 32.686C49.2073 32.992 49.0543 33.361 48.7663 33.793C48.4783 34.225 48.0553 34.657 47.4973 35.089C46.9573 35.503 46.2733 35.845 45.4453 36.115C44.6173 36.385 43.6543 36.52 42.5563 36.52ZM40.2613 27.799H44.8243V27.745C44.8243 27.169 44.7343 26.665 44.5543 26.233C44.3923 25.801 44.1313 25.468 43.7713 25.234C43.4293 25 43.0153 24.883 42.5293 24.883C42.0433 24.883 41.6293 25 41.2873 25.234C40.9633 25.468 40.7113 25.801 40.5313 26.233C40.3513 26.665 40.2613 27.169 40.2613 27.745V27.799ZM57.9252 36.25C57.6552 36.25 57.4572 36.187 57.3312 36.061C57.2052 35.917 57.0972 35.755 57.0072 35.575L51.9042 23.047C51.8682 22.975 51.8502 22.894 51.8502 22.804C51.8502 22.642 51.9042 22.507 52.0122 22.399C52.1382 22.273 52.2912 22.21 52.4712 22.21H55.5222C55.7562 22.21 55.9362 22.273 56.0622 22.399C56.1882 22.525 56.2692 22.651 56.3052 22.777L59.3562 31.066L62.4342 22.777C62.4702 22.651 62.5512 22.525 62.6772 22.399C62.8032 22.273 62.9832 22.21 63.2172 22.21H66.2682C66.4302 22.21 66.5742 22.273 66.7002 22.399C66.8262 22.507 66.8892 22.642 66.8892 22.804C66.8892 22.894 66.8712 22.975 66.8352 23.047L61.7322 35.575C61.6602 35.755 61.5522 35.917 61.4082 36.061C61.2822 36.187 61.0752 36.25 60.7872 36.25H57.9252ZM76.4525 36.52C74.9405 36.52 73.6625 36.277 72.6185 35.791C71.5925 35.305 70.8005 34.612 70.2425 33.712C69.7025 32.794 69.3965 31.705 69.3245 30.445C69.3065 30.085 69.2975 29.68 69.2975 29.23C69.2975 28.762 69.3065 28.357 69.3245 28.015C69.3965 26.737 69.7205 25.648 70.2965 24.748C70.8725 23.848 71.6735 23.155 72.6995 22.669C73.7435 22.183 74.9945 21.94 76.4525 21.94C77.9285 21.94 79.1795 22.183 80.2055 22.669C81.2495 23.155 82.0595 23.848 82.6355 24.748C83.2115 25.648 83.5355 26.737 83.6075 28.015C83.6255 28.357 83.6345 28.762 83.6345 29.23C83.6345 29.68 83.6255 30.085 83.6075 30.445C83.5355 31.705 83.2205 32.794 82.6625 33.712C82.1225 34.612 81.3305 35.305 80.2865 35.791C79.2605 36.277 77.9825 36.52 76.4525 36.52ZM76.4525 33.226C77.2625 33.226 77.8475 32.983 78.2075 32.497C78.5855 32.011 78.8015 31.282 78.8555 30.31C78.8735 30.04 78.8825 29.68 78.8825 29.23C78.8825 28.78 78.8735 28.42 78.8555 28.15C78.8015 27.196 78.5855 26.476 78.2075 25.99C77.8475 25.486 77.2625 25.234 76.4525 25.234C75.6605 25.234 75.0755 25.486 74.6975 25.99C74.3195 26.476 74.1125 27.196 74.0765 28.15C74.0585 28.42 74.0495 28.78 74.0495 29.23C74.0495 29.68 74.0585 30.04 74.0765 30.31C74.1125 31.282 74.3195 32.011 74.6975 32.497C75.0755 32.983 75.6605 33.226 76.4525 33.226ZM88.315 36.25C88.117 36.25 87.955 36.187 87.829 36.061C87.703 35.935 87.64 35.773 87.64 35.575V22.885C87.64 22.705 87.703 22.552 87.829 22.426C87.955 22.282 88.117 22.21 88.315 22.21H91.42C91.618 22.21 91.78 22.282 91.906 22.426C92.032 22.552 92.095 22.705 92.095 22.885V23.965C92.581 23.407 93.157 22.975 93.823 22.669C94.507 22.363 95.272 22.21 96.118 22.21H97.306C97.486 22.21 97.639 22.273 97.765 22.399C97.909 22.525 97.981 22.687 97.981 22.885V25.666C97.981 25.846 97.909 26.008 97.765 26.152C97.639 26.278 97.486 26.341 97.306 26.341H94.687C93.949 26.341 93.373 26.548 92.959 26.962C92.563 27.358 92.365 27.925 92.365 28.663V35.575C92.365 35.773 92.293 35.935 92.149 36.061C92.023 36.187 91.861 36.25 91.663 36.25H88.315ZM106.408 36.52C105.382 36.52 104.464 36.286 103.654 35.818C102.862 35.35 102.241 34.666 101.791 33.766C101.341 32.848 101.116 31.732 101.116 30.418V22.885C101.116 22.687 101.179 22.525 101.305 22.399C101.431 22.273 101.593 22.21 101.791 22.21H105.166C105.364 22.21 105.526 22.273 105.652 22.399C105.778 22.525 105.841 22.687 105.841 22.885V30.256C105.841 32.02 106.633 32.902 108.217 32.902C108.955 32.902 109.54 32.677 109.972 32.227C110.422 31.759 110.647 31.102 110.647 30.256V22.885C110.647 22.687 110.71 22.525 110.836 22.399C110.962 22.273 111.124 22.21 111.322 22.21H114.697C114.895 22.21 115.057 22.273 115.183 22.399C115.309 22.525 115.372 22.687 115.372 22.885V35.575C115.372 35.773 115.309 35.935 115.183 36.061C115.057 36.187 114.895 36.25 114.697 36.25H111.565C111.385 36.25 111.223 36.187 111.079 36.061C110.953 35.935 110.89 35.773 110.89 35.575V34.549C110.422 35.197 109.81 35.692 109.054 36.034C108.316 36.358 107.434 36.52 106.408 36.52ZM120.573 36.25C120.375 36.25 120.213 36.187 120.087 36.061C119.961 35.935 119.898 35.773 119.898 35.575V22.885C119.898 22.687 119.961 22.525 120.087 22.399C120.213 22.273 120.375 22.21 120.573 22.21H123.516C123.714 22.21 123.876 22.273 124.002 22.399C124.128 22.525 124.191 22.687 124.191 22.885V23.803C124.551 23.317 125.055 22.894 125.703 22.534C126.351 22.156 127.116 21.958 127.998 21.94C130.068 21.904 131.49 22.687 132.264 24.289C132.678 23.605 133.272 23.047 134.046 22.615C134.82 22.165 135.666 21.94 136.584 21.94C137.52 21.94 138.357 22.156 139.095 22.588C139.851 23.002 140.454 23.65 140.904 24.532C141.354 25.396 141.579 26.521 141.579 27.907V35.575C141.579 35.773 141.507 35.935 141.363 36.061C141.237 36.187 141.084 36.25 140.904 36.25H137.772C137.574 36.25 137.403 36.187 137.259 36.061C137.133 35.935 137.07 35.773 137.07 35.575V28.096C137.07 27.466 136.98 26.971 136.8 26.611C136.62 26.233 136.377 25.963 136.071 25.801C135.765 25.639 135.414 25.558 135.018 25.558C134.694 25.558 134.37 25.639 134.046 25.801C133.74 25.963 133.488 26.233 133.29 26.611C133.11 26.971 133.02 27.466 133.02 28.096V35.575C133.02 35.773 132.957 35.935 132.831 36.061C132.705 36.187 132.543 36.25 132.345 36.25H129.213C129.015 36.25 128.853 36.187 128.727 36.061C128.601 35.935 128.538 35.773 128.538 35.575V28.096C128.538 27.466 128.439 26.971 128.241 26.611C128.043 26.233 127.791 25.963 127.485 25.801C127.179 25.639 126.837 25.558 126.459 25.558C126.135 25.558 125.811 25.639 125.487 25.801C125.181 25.963 124.929 26.233 124.731 26.611C124.551 26.971 124.461 27.457 124.461 28.069V35.575C124.461 35.773 124.389 35.935 124.245 36.061C124.119 36.187 123.957 36.25 123.759 36.25H120.573Z"
    fill="white" />
</svg>